<?xml version="1.0" encoding="iso-8859-1"?>
<!-- Generator: Adobe Illustrator 19.0.0, SVG Export Plug-In . SVG Version: 6.00 Build 0)  -->
<svg version="1.1" id="Capa_1" xmlns="http://www.w3.org/2000/svg" xmlns:xlink="http://www.w3.org/1999/xlink" x="0px" y="0px"
	 viewBox="0 0 480.023 480.023" style="enable-background:new 0 0 480.023 480.023;" xml:space="preserve">
<g>
	<g>
		<path d="M456.023,0c-0.396,0-0.792,0.029-1.184,0.088l-320,48c-3.917,0.586-6.816,3.951-6.816,7.912v251.336
			C81.264,294.081,32.613,321.241,19.359,368c-13.255,46.759,13.905,95.409,60.664,108.664S175.432,462.759,188.687,416
			c2.213-7.808,3.336-15.884,3.336-24V158.936l208-29.712v138.112c-7.806-2.221-15.884-3.344-24-3.336
			c-48.601-0.001-88.001,39.397-88.002,87.998c-0.001,48.601,39.397,88.001,87.998,88.002c44.216,0.001,81.568-32.809,87.268-76.656
			c0.486-1.048,0.737-2.189,0.736-3.344V8C464.023,3.582,460.441,0,456.023,0z M448.023,357.496c-0.182,0.556-0.303,1.13-0.36,1.712
			c-3.947,39.604-39.252,68.509-78.856,64.562s-68.509-39.252-64.562-78.856s39.252-68.509,78.856-64.562
			c7.493,0.747,14.822,2.663,21.722,5.68c4.049,1.767,8.765-0.083,10.532-4.132c0.44-1.008,0.667-2.096,0.668-3.196V120
			c-0.001-2.318-1.008-4.522-2.76-6.04c-1.758-1.529-4.095-2.215-6.4-1.88l-224,32c-3.93,0.576-6.842,3.948-6.84,7.92v240
			c0.038,39.804-32.2,72.102-72.004,72.14c-39.804,0.038-72.102-32.2-72.14-72.004c-0.038-39.804,32.2-72.103,72.004-72.14
			c9.96-0.009,19.814,2.046,28.94,6.036c4.049,1.767,8.765-0.083,10.532-4.132c0.44-1.008,0.667-2.096,0.668-3.196V62.888l304-45.6
			V357.496z"/>
	</g>
</g>
<g>
</g>
<g>
</g>
<g>
</g>
<g>
</g>
<g>
</g>
<g>
</g>
<g>
</g>
<g>
</g>
<g>
</g>
<g>
</g>
<g>
</g>
<g>
</g>
<g>
</g>
<g>
</g>
<g>
</g>
</svg>
