<?xml version="1.0" encoding="utf-8"?>
<!-- Generator: Adobe Illustrator 22.0.0, SVG Export Plug-In . SVG Version: 6.00 Build 0)  -->
<svg version="1.1" id="Layer_1" xmlns="http://www.w3.org/2000/svg" xmlns:xlink="http://www.w3.org/1999/xlink" x="0px" y="0px"
	 viewBox="0 0 18 18" style="enable-background:new 0 0 18 18;" xml:space="preserve">
<style type="text/css">
	.st0{fill:#FFFFFF;}
</style>
<g>
	<path class="st0" d="M2.9,16.8c1,0.8,2.2,1.2,3.5,1.2c0.3,0,0.6,0,0.8-0.1c1.2-0.2,2.3-0.7,3.1-1.6c1.1-1,1.6-2.4,1.7-3.9l0-6.6
		c0.5,0.4,1.1,0.7,1.7,1c0.9,0.4,1.9,0.6,2.9,0.6V5.3h0V4.5c0,0,0,0,0,0c-1,0-2-0.3-2.7-0.9c-0.9-0.7-1.5-1.6-1.7-2.7
		C12,0.6,12,0.3,12,0H9.1v8l0,4.4c0,1.2-0.8,2.2-1.8,2.5c-0.3,0.1-0.6,0.1-1,0.1c-0.4,0-0.9-0.2-1.2-0.4c-0.8-0.5-1.3-1.3-1.3-2.2
		c0-1.5,1.2-2.7,2.7-2.7c0.3,0,0.6,0,0.8,0.1V7.7V6.9C7,6.9,6.7,6.9,6.4,6.9c-1.6,0-3.1,0.7-4.2,1.9c-0.8,0.9-1.3,2.1-1.4,3.3
		c-0.1,1.6,0.5,3.2,1.6,4.3C2.6,16.5,2.7,16.7,2.9,16.8z"/>
</g>
</svg>
